<svg width="690" height="794" viewBox="0 0 690 794" fill="none" xmlns="http://www.w3.org/2000/svg">
  <g filter="url(#filter0_d)">
    <path d="M199.085 0L623.942 0V591.935H199.085L199.085 0Z" fill="#6EAFB8" />
  </g>
  <path d="M285.015 138.437H561.888V147.984H285.015V138.437Z" fill="#598C93" />
  <path d="M285.015 162.305H561.888V171.853H285.015V162.305Z" fill="#598C93" />
  <path d="M285.015 183.786H561.888V195.72H285.015V183.786Z" fill="#598C93" />
  <path d="M285.015 207.656H561.888V217.204H285.015V207.656Z" fill="#598C93" />
  <g filter="url(#filter1_d)">
    <path d="M622.988 0L685.999 0V590.312H622.988V0Z" fill="#6EAFB8" />
  </g>
  <path d="M354.26 445.852H511.618V541.111H354.26V445.852Z" fill="white" />
  <path d="M359.495 458.073H450.495V462.339H359.495V458.073Z" fill="#3B2E52" />
  <path d="M359.495 466.605H450.495V470.871H359.495V466.605Z" fill="#3B2E52" />
  <path d="M363.756 522.057L363.756 527.745L359.49 527.745L359.49 522.057L363.756 522.057Z" fill="#3B2E52" />
  <path d="M386.509 522.057L386.509 527.745L382.243 527.745L382.243 522.057L386.509 522.057Z" fill="#3B2E52" />
  <path d="M375.136 522.057L375.136 527.745L370.87 527.745L370.87 522.057L375.136 522.057Z" fill="#3B2E52" />
  <path d="M397.886 522.057L397.886 527.745L393.62 527.745L393.62 522.057L397.886 522.057Z" fill="#3B2E52" />
  <path d="M369.446 522.057L369.446 527.745L365.181 527.745L365.181 522.057L369.446 522.057Z" fill="#3B2E52" />
  <path d="M392.199 522.057L392.199 527.745L387.934 527.745L387.934 522.057L392.199 522.057Z" fill="#3B2E52" />
  <path d="M380.822 522.057L380.822 527.745L376.557 527.745L376.557 522.057L380.822 522.057Z" fill="#3B2E52" />
  <path d="M403.572 522.057L403.572 527.745L399.307 527.745L399.307 522.057L403.572 522.057Z" fill="#3B2E52" />
  <path d="M410.685 522.057L410.685 527.745L406.419 527.745L406.419 522.057L410.685 522.057Z" fill="#3B2E52" />
  <path d="M433.435 522.057L433.435 527.745L429.169 527.745L429.169 522.057L433.435 522.057Z" fill="#3B2E52" />
  <path d="M422.062 522.057L422.062 527.745L417.796 527.745L417.796 522.057L422.062 522.057Z" fill="#3B2E52" />
  <path d="M444.811 522.057L444.811 527.745L440.545 527.745L440.545 522.057L444.811 522.057Z" fill="#3B2E52" />
  <path d="M416.375 522.057L416.375 527.745L412.109 527.745L412.109 522.057L416.375 522.057Z" fill="#3B2E52" />
  <path d="M439.124 522.057L439.124 527.745L434.858 527.745L434.858 522.057L439.124 522.057Z" fill="#3B2E52" />
  <path d="M427.748 522.057L427.748 527.745L423.482 527.745L423.482 522.057L427.748 522.057Z" fill="#3B2E52" />
  <path d="M450.497 522.057L450.497 527.745L446.231 527.745L446.231 522.057L450.497 522.057Z" fill="#3B2E52" />
  <path d="M463.29 469.448L463.29 475.136L459.024 475.136L459.024 469.448L463.29 469.448Z" fill="#3B2E52" />
  <path d="M486.043 469.448L486.043 475.136L481.777 475.136L481.777 469.448L486.043 469.448Z" fill="#3B2E52" />
  <path d="M474.67 469.448L474.67 475.136L470.404 475.136L470.404 469.448L474.67 469.448Z" fill="#3B2E52" />
  <path d="M497.42 469.448L497.42 475.136L493.154 475.136L493.154 469.448L497.42 469.448Z" fill="#3B2E52" />
  <path d="M468.98 469.448L468.98 475.136L464.715 475.136L464.715 469.448L468.98 469.448Z" fill="#3B2E52" />
  <path d="M491.733 469.448L491.733 475.136L487.468 475.136L487.468 469.448L491.733 469.448Z" fill="#3B2E52" />
  <path d="M480.356 469.448L480.356 475.136L476.091 475.136L476.091 469.448L480.356 469.448Z" fill="#3B2E52" />
  <path d="M503.106 469.448L503.106 475.136L498.841 475.136L498.841 469.448L503.106 469.448Z" fill="#3B2E52" />
  <path d="M467.558 476.557L467.558 520.635L466.136 520.635L466.136 476.557L467.558 476.557Z" fill="#3B2E52" />
  <path d="M471.825 476.557L471.825 520.635L468.981 520.635L468.981 476.557L471.825 476.557Z" fill="#3B2E52" />
  <path d="M477.512 476.557L477.512 520.635L473.246 520.635L473.246 476.557L477.512 476.557Z" fill="#3B2E52" />
  <path d="M464.716 476.557L464.716 520.635L459.028 520.635L459.028 476.557L464.716 476.557Z" fill="#3B2E52" />
  <path d="M483.201 476.557L483.201 520.635L478.936 520.635L478.936 476.557L483.201 476.557Z" fill="#3B2E52" />
  <path d="M497.42 520.636L497.42 476.558L500.264 476.558L500.264 520.636L497.42 520.636Z" fill="#3B2E52" />
  <path d="M486.043 476.557L486.043 520.635L484.621 520.635L484.621 476.557L486.043 476.557Z" fill="#3B2E52" />
  <path d="M493.152 476.557L493.152 520.635L491.73 520.635L491.73 476.557L493.152 476.557Z" fill="#3B2E52" />
  <path d="M494.574 520.636L494.574 476.558L495.996 476.558L495.996 520.636L494.574 520.636Z" fill="#3B2E52" />
  <path d="M501.684 520.636L501.684 476.558L503.105 476.558L503.105 520.636L501.684 520.636Z" fill="#3B2E52" />
  <path d="M490.308 476.557L490.308 520.635L487.464 520.635L487.464 476.557L490.308 476.557Z" fill="#3B2E52" />
  <path d="M363.756 475.136L363.756 519.214L359.49 519.214L359.49 475.136L363.756 475.136Z" fill="#3B2E52" />
  <path d="M368.023 475.136L368.023 519.214L366.602 519.214L366.602 475.136L368.023 475.136Z" fill="#3B2E52" />
  <path d="M386.509 475.136L386.509 519.214L385.087 519.214L385.087 475.136L386.509 475.136Z" fill="#3B2E52" />
  <path d="M424.899 475.136L424.899 519.214L423.478 519.214L423.478 475.136L424.899 475.136Z" fill="#3B2E52" />
  <path d="M429.163 475.136L429.163 519.214L426.319 519.214L426.319 475.136L429.163 475.136Z" fill="#3B2E52" />
  <path d="M372.291 475.136L372.291 519.214L369.447 519.214L369.447 475.136L372.291 475.136Z" fill="#3B2E52" />
  <path d="M392.199 475.136L392.199 519.214L387.934 519.214L387.934 475.136L392.199 475.136Z" fill="#3B2E52" />
  <path d="M434.854 475.136L434.854 519.214L430.588 519.214L430.588 475.136L434.854 475.136Z" fill="#3B2E52" />
  <path d="M375.136 475.136L375.136 519.214L376.558 519.214L376.558 475.136L375.136 475.136Z" fill="#3B2E52" />
  <path d="M383.667 475.136L383.667 519.214L379.401 519.214L379.401 475.136L383.667 475.136Z" fill="#3B2E52" />
  <path d="M402.149 475.136L402.149 519.214L400.728 519.214L400.728 475.136L402.149 475.136Z" fill="#3B2E52" />
  <path d="M395.04 475.136L395.04 519.214L393.618 519.214L393.618 475.136L395.04 475.136Z" fill="#3B2E52" />
  <path d="M413.526 475.136L413.526 519.214L410.683 519.214L410.683 475.136L413.526 475.136Z" fill="#3B2E52" />
  <path d="M399.305 475.136L399.305 519.214L396.461 519.214L396.461 475.136L399.305 475.136Z" fill="#3B2E52" />
  <path d="M422.055 475.136L422.055 519.214L416.367 519.214L416.367 475.136L422.055 475.136Z" fill="#3B2E52" />
  <path d="M440.54 475.136L440.54 519.214L436.274 519.214L436.274 475.136L440.54 475.136Z" fill="#3B2E52" />
  <path d="M443.385 475.136L443.385 519.214L441.963 519.214L441.963 475.136L443.385 475.136Z" fill="#3B2E52" />
  <path d="M450.494 475.136L450.494 519.214L449.072 519.214L449.072 475.136L450.494 475.136Z" fill="#3B2E52" />
  <path d="M447.649 475.136L447.649 519.214L444.806 519.214L444.806 475.136L447.649 475.136Z" fill="#3B2E52" />
  <path d="M409.259 475.136L409.259 519.214L403.571 519.214L403.571 475.136L409.259 475.136Z" fill="#3B2E52" />
  <g filter="url(#filter2_d)">
    <path d="M8.00879 205.181C8.00879 179.804 28.5806 159.232 53.9572 159.232H286.456C311.833 159.232 332.405 179.804 332.405 205.181V739.101C332.405 764.478 311.833 785.05 286.456 785.05H53.9572C28.5806 785.05 8.00879 764.478 8.00879 739.101V205.181Z" fill="#2D3441" />
    <path d="M25.4668 209.775C25.4668 191.504 40.2785 176.692 58.5497 176.692H281.859C300.13 176.692 314.942 191.504 314.942 209.775V735.425C314.942 753.696 300.13 768.508 281.859 768.508H58.5497C40.2785 768.508 25.4668 753.696 25.4668 735.425V209.775Z" fill="white" />
    <path fill-rule="evenodd" clip-rule="evenodd" d="M60.6292 192.315C59.1298 192.315 57.9641 191.327 57.7397 189.873H59.376C59.5293 190.449 60.0218 190.812 60.6402 190.812C61.7238 190.812 62.3805 189.655 62.3476 187.838H62.2491C61.8879 188.662 61.1546 189.128 60.2352 189.128C58.7357 189.128 57.6357 187.905 57.6357 186.233C57.6357 184.415 58.889 183.125 60.6566 183.125C61.7949 183.125 62.7143 183.676 63.2616 184.7C63.6994 185.451 63.9237 186.457 63.9237 187.65C63.9237 190.558 62.6869 192.315 60.6292 192.315ZM60.6678 187.717C61.4942 187.717 62.1016 187.069 62.1016 186.19C62.1016 185.306 61.4832 184.621 60.6733 184.621C59.8633 184.621 59.2395 185.3 59.2395 186.172C59.2395 187.069 59.8414 187.717 60.6678 187.717ZM66.2499 191.206C66.8409 191.206 67.2185 190.764 67.2185 190.152C67.2185 189.54 66.8409 189.104 66.2499 189.104C65.6643 189.104 65.2812 189.54 65.2812 190.152C65.2812 190.764 65.6643 191.206 66.2499 191.206ZM66.2499 186.735C66.8409 186.735 67.2185 186.293 67.2185 185.681C67.2185 185.07 66.8409 184.633 66.2499 184.633C65.6643 184.633 65.2812 185.07 65.2812 185.681C65.2812 186.293 65.6643 186.735 66.2499 186.735ZM72.4613 192.091V190.564H68.5977V188.947C69.3091 187.462 70.338 185.657 71.7225 183.349H74.0374V189.043H75.0718V190.564H74.0374V192.091H72.4613ZM70.081 189.001V189.098H72.4998V184.773H72.4123C71.6899 185.966 70.9839 187.19 70.081 189.001ZM78.0383 192.091H79.691V183.349H78.0437L76.0025 184.906V186.608L77.9398 185.13H78.0383V192.091Z" fill="black" />
    <path fill-rule="evenodd" clip-rule="evenodd" d="M271.432 184.818C273.124 184.818 274.751 185.451 275.977 186.586C276.069 186.674 276.217 186.673 276.308 186.584L277.191 185.717C277.237 185.671 277.262 185.61 277.262 185.547C277.262 185.483 277.235 185.422 277.189 185.378C273.97 182.374 268.893 182.374 265.674 185.378C265.627 185.422 265.601 185.483 265.601 185.547C265.6 185.61 265.626 185.671 265.672 185.717L266.555 186.584C266.646 186.673 266.793 186.674 266.886 186.586C268.112 185.451 269.739 184.818 271.432 184.818ZM271.429 187.639C272.359 187.639 273.255 187.976 273.944 188.583C274.038 188.669 274.185 188.668 274.275 188.579L275.157 187.712C275.203 187.666 275.229 187.604 275.229 187.54C275.228 187.476 275.201 187.415 275.153 187.37C273.055 185.47 269.805 185.47 267.707 187.37C267.66 187.415 267.632 187.476 267.632 187.54C267.631 187.604 267.657 187.666 267.704 187.712L268.585 188.579C268.676 188.668 268.823 188.669 268.916 188.583C269.605 187.976 270.5 187.64 271.429 187.639ZM273.199 189.538C273.2 189.602 273.174 189.664 273.127 189.709L271.602 191.208C271.557 191.252 271.496 191.277 271.433 191.277C271.369 191.277 271.308 191.252 271.263 191.208L269.738 189.709C269.691 189.664 269.665 189.602 269.666 189.538C269.668 189.474 269.696 189.413 269.745 189.37C270.719 188.567 272.146 188.567 273.12 189.37C273.169 189.413 273.197 189.474 273.199 189.538Z" fill="black" />
    <path d="M249.543 188.331H250.306C250.728 188.331 251.07 188.664 251.07 189.075V190.562C251.07 190.972 250.728 191.305 250.306 191.305H249.543C249.121 191.305 248.779 190.972 248.779 190.562V189.075C248.779 188.664 249.121 188.331 249.543 188.331V188.331Z" fill="black" />
    <path d="M253.107 186.845H253.871C254.293 186.845 254.634 187.178 254.634 187.589V190.563C254.634 190.973 254.293 191.306 253.871 191.306H253.107C252.686 191.306 252.344 190.973 252.344 190.563V187.589C252.344 187.178 252.686 186.845 253.107 186.845Z" fill="black" />
    <path d="M256.67 185.109H257.433C257.855 185.109 258.197 185.442 258.197 185.853V190.562C258.197 190.972 257.855 191.305 257.433 191.305H256.67C256.248 191.305 255.906 190.972 255.906 190.562V185.853C255.906 185.442 256.248 185.109 256.67 185.109Z" fill="black" />
    <path d="M260.233 183.374H260.997C261.419 183.374 261.76 183.707 261.76 184.118V190.561C261.76 190.972 261.419 191.305 260.997 191.305H260.233C259.812 191.305 259.47 190.972 259.47 190.561V184.118C259.47 183.707 259.812 183.374 260.233 183.374V183.374Z" fill="black" />
    <path opacity="0.35" fill-rule="evenodd" clip-rule="evenodd" d="M291.629 185.522H283.917C283.491 185.522 283.145 185.883 283.145 186.329V189.237C283.145 189.683 283.491 190.045 283.917 190.045H291.629C292.054 190.045 292.4 189.683 292.4 189.237V186.329C292.4 185.883 292.054 185.522 291.629 185.522ZM283.917 185.037C283.235 185.037 282.683 185.616 282.683 186.329V189.237C282.683 189.951 283.235 190.529 283.917 190.529H291.629C292.31 190.529 292.862 189.951 292.862 189.237V186.329C292.862 185.616 292.31 185.037 291.629 185.037H283.917Z" fill="black" />
    <path opacity="0.4" d="M292.863 186.134V189.43C293.549 189.15 293.994 188.501 293.994 187.782C293.994 187.063 293.549 186.413 292.863 186.134" fill="black" />
    <path d="M283.813 186.733C283.813 186.403 284.076 186.134 284.4 186.134H291.145C291.469 186.134 291.731 186.403 291.731 186.733V188.83C291.731 189.161 291.469 189.43 291.145 189.43H284.4C284.076 189.43 283.813 189.161 283.813 188.83V186.733Z" fill="black" />
    <rect x="25.4668" y="245.615" width="289.475" height="465.945" fill="#6EAFB8" />
    <rect x="51.0547" y="329.598" width="239.851" height="145.197" fill="white" />
    <rect x="59.0273" y="348.225" width="138.705" height="6.50181" fill="#3B2E52" />
    <rect x="59.0273" y="361.228" width="138.705" height="6.50181" fill="#3B2E52" />
    <rect x="65.5303" y="445.752" width="8.66908" height="6.50181" transform="rotate(90 65.5303 445.752)" fill="#3B2E52" />
    <rect x="100.207" y="445.752" width="8.66908" height="6.50181" transform="rotate(90 100.207 445.752)" fill="#3B2E52" />
    <rect x="82.8691" y="445.752" width="8.66908" height="6.50181" transform="rotate(90 82.8691 445.752)" fill="#3B2E52" />
    <rect x="117.546" y="445.752" width="8.66908" height="6.50181" transform="rotate(90 117.546 445.752)" fill="#3B2E52" />
    <rect x="74.1973" y="445.752" width="8.66908" height="6.50181" transform="rotate(90 74.1973 445.752)" fill="#3B2E52" />
    <rect x="108.874" y="445.752" width="8.66908" height="6.50181" transform="rotate(90 108.874 445.752)" fill="#3B2E52" />
    <rect x="91.5361" y="445.752" width="8.66908" height="6.50181" transform="rotate(90 91.5361 445.752)" fill="#3B2E52" />
    <rect x="126.214" y="445.752" width="8.66908" height="6.50181" transform="rotate(90 126.214 445.752)" fill="#3B2E52" />
    <rect x="137.052" y="445.752" width="8.66908" height="6.50181" transform="rotate(90 137.052 445.752)" fill="#3B2E52" />
    <rect x="171.729" y="445.752" width="8.66908" height="6.50181" transform="rotate(90 171.729 445.752)" fill="#3B2E52" />
    <rect x="154.391" y="445.752" width="8.66908" height="6.50181" transform="rotate(90 154.391 445.752)" fill="#3B2E52" />
    <rect x="189.067" y="445.752" width="8.66908" height="6.50181" transform="rotate(90 189.067 445.752)" fill="#3B2E52" />
    <rect x="145.719" y="445.752" width="8.66908" height="6.50181" transform="rotate(90 145.719 445.752)" fill="#3B2E52" />
    <rect x="180.396" y="445.752" width="8.66908" height="6.50181" transform="rotate(90 180.396 445.752)" fill="#3B2E52" />
    <rect x="163.058" y="445.752" width="8.66908" height="6.50181" transform="rotate(90 163.058 445.752)" fill="#3B2E52" />
    <rect x="197.735" y="445.752" width="8.66908" height="6.50181" transform="rotate(90 197.735 445.752)" fill="#3B2E52" />
    <rect x="217.24" y="365.562" width="8.66908" height="6.50181" transform="rotate(90 217.24 365.562)" fill="#3B2E52" />
    <rect x="251.917" y="365.562" width="8.66908" height="6.50181" transform="rotate(90 251.917 365.562)" fill="#3B2E52" />
    <rect x="234.579" y="365.562" width="8.66908" height="6.50181" transform="rotate(90 234.579 365.562)" fill="#3B2E52" />
    <rect x="269.256" y="365.562" width="8.66908" height="6.50181" transform="rotate(90 269.256 365.562)" fill="#3B2E52" />
    <rect x="225.907" y="365.562" width="8.66908" height="6.50181" transform="rotate(90 225.907 365.562)" fill="#3B2E52" />
    <rect x="260.584" y="365.562" width="8.66908" height="6.50181" transform="rotate(90 260.584 365.562)" fill="#3B2E52" />
    <rect x="243.246" y="365.562" width="8.66908" height="6.50181" transform="rotate(90 243.246 365.562)" fill="#3B2E52" />
    <rect x="277.924" y="365.562" width="8.66908" height="6.50181" transform="rotate(90 277.924 365.562)" fill="#3B2E52" />
    <rect x="223.744" y="376.399" width="67.1854" height="2.16727" transform="rotate(90 223.744 376.399)" fill="#3B2E52" />
    <rect x="230.245" y="376.399" width="67.1854" height="4.33454" transform="rotate(90 230.245 376.399)" fill="#3B2E52" />
    <rect x="238.912" y="376.399" width="67.1854" height="6.50181" transform="rotate(90 238.912 376.399)" fill="#3B2E52" />
    <rect x="219.406" y="376.399" width="67.1854" height="8.66908" transform="rotate(90 219.406 376.399)" fill="#3B2E52" />
    <rect x="247.584" y="376.399" width="67.1854" height="6.50181" transform="rotate(90 247.584 376.399)" fill="#3B2E52" />
    <rect x="269.257" y="443.585" width="67.1854" height="4.33453" transform="rotate(-90 269.257 443.585)" fill="#3B2E52" />
    <rect x="251.917" y="376.399" width="67.1854" height="2.16727" transform="rotate(90 251.917 376.399)" fill="#3B2E52" />
    <rect x="262.754" y="376.399" width="67.1854" height="2.16727" transform="rotate(90 262.754 376.399)" fill="#3B2E52" />
    <rect x="264.922" y="443.585" width="67.1854" height="2.16727" transform="rotate(-90 264.922 443.585)" fill="#3B2E52" />
    <rect x="275.759" y="443.585" width="67.1854" height="2.16727" transform="rotate(-90 275.759 443.585)" fill="#3B2E52" />
    <rect x="258.42" y="376.399" width="67.1854" height="4.33454" transform="rotate(90 258.42 376.399)" fill="#3B2E52" />
    <rect x="65.5303" y="374.231" width="67.1854" height="6.50181" transform="rotate(90 65.5303 374.231)" fill="#3B2E52" />
    <rect x="72.0322" y="374.231" width="67.1854" height="2.16727" transform="rotate(90 72.0322 374.231)" fill="#3B2E52" />
    <rect x="100.207" y="374.231" width="67.1854" height="2.16727" transform="rotate(90 100.207 374.231)" fill="#3B2E52" />
    <rect x="158.721" y="374.231" width="67.1854" height="2.16727" transform="rotate(90 158.721 374.231)" fill="#3B2E52" />
    <rect x="165.227" y="374.231" width="67.1854" height="4.33454" transform="rotate(90 165.227 374.231)" fill="#3B2E52" />
    <rect x="78.5352" y="374.231" width="67.1854" height="4.33454" transform="rotate(90 78.5352 374.231)" fill="#3B2E52" />
    <rect x="108.874" y="374.231" width="67.1854" height="6.50181" transform="rotate(90 108.874 374.231)" fill="#3B2E52" />
    <rect x="173.895" y="374.231" width="67.1854" height="6.50181" transform="rotate(90 173.895 374.231)" fill="#3B2E52" />
    <rect width="67.1854" height="2.16727" transform="matrix(-4.37114e-08 1 1 4.37114e-08 82.8691 374.231)" fill="#3B2E52" />
    <rect x="95.874" y="374.231" width="67.1854" height="6.50181" transform="rotate(90 95.874 374.231)" fill="#3B2E52" />
    <rect x="124.049" y="374.231" width="67.1854" height="2.16727" transform="rotate(90 124.049 374.231)" fill="#3B2E52" />
    <rect x="113.209" y="374.231" width="67.1854" height="2.16727" transform="rotate(90 113.209 374.231)" fill="#3B2E52" />
    <rect x="141.387" y="374.231" width="67.1854" height="4.33454" transform="rotate(90 141.387 374.231)" fill="#3B2E52" />
    <rect x="119.711" y="374.231" width="67.1854" height="4.33454" transform="rotate(90 119.711 374.231)" fill="#3B2E52" />
    <rect x="154.387" y="374.231" width="67.1854" height="8.66908" transform="rotate(90 154.387 374.231)" fill="#3B2E52" />
    <rect x="182.565" y="374.231" width="67.1854" height="6.50181" transform="rotate(90 182.565 374.231)" fill="#3B2E52" />
    <rect x="186.899" y="374.231" width="67.1854" height="2.16727" transform="rotate(90 186.899 374.231)" fill="#3B2E52" />
    <rect x="197.731" y="374.231" width="67.1854" height="2.16727" transform="rotate(90 197.731 374.231)" fill="#3B2E52" />
    <rect x="193.398" y="374.231" width="67.1854" height="4.33454" transform="rotate(90 193.398 374.231)" fill="#3B2E52" />
    <rect x="134.884" y="374.231" width="67.1854" height="8.66908" transform="rotate(90 134.884 374.231)" fill="#3B2E52" />
    <path fill-rule="evenodd" clip-rule="evenodd" d="M51.0529 347.746H43.7012V322.245H71.0405V329.597H51.0529V347.746ZM270.916 329.597V322.245H298.255V347.746H290.904V329.597H270.916ZM290.904 456.644H298.255V482.146H270.916V474.794H290.904V456.644ZM51.0529 456.644H43.7012V482.146H71.0405V474.794H51.0529V456.644ZM129.395 474.794V482.146H206.129V474.794H129.395Z" fill="#EF5831" />
    <path d="M206.359 329.597H129.625V322.245H206.359V329.597Z" fill="#EF5831" />
    <path d="M42.9307 397.245H298.404V404.597H42.9307V397.245Z" fill="#FF3700" />
    <path d="M98.9863 179.909C98.9863 171.027 106.186 163.827 115.068 163.827H225.344C234.226 163.827 241.426 171.027 241.426 179.909C241.426 188.79 234.226 195.991 225.344 195.991H115.068C106.186 195.991 98.9863 188.79 98.9863 179.909Z" fill="#2D3441" />
    <path d="M134.948 231.932C134.948 231.433 134.771 231.048 134.417 230.778C134.069 230.508 133.437 230.235 132.523 229.959C131.608 229.684 130.88 229.377 130.339 229.039C129.305 228.389 128.787 227.542 128.787 226.497C128.787 225.582 129.159 224.828 129.903 224.236C130.651 223.643 131.621 223.347 132.811 223.347C133.601 223.347 134.306 223.492 134.924 223.783C135.543 224.074 136.029 224.49 136.382 225.031C136.736 225.566 136.913 226.162 136.913 226.817H134.948C134.948 226.224 134.761 225.761 134.386 225.429C134.017 225.091 133.487 224.922 132.795 224.922C132.151 224.922 131.649 225.06 131.291 225.335C130.937 225.611 130.76 225.995 130.76 226.489C130.76 226.905 130.953 227.253 131.337 227.534C131.722 227.81 132.356 228.08 133.24 228.345C134.124 228.605 134.833 228.904 135.369 229.242C135.904 229.574 136.297 229.959 136.546 230.396C136.796 230.827 136.92 231.334 136.92 231.916C136.92 232.863 136.557 233.616 135.829 234.178C135.106 234.734 134.124 235.012 132.881 235.012C132.06 235.012 131.304 234.861 130.612 234.56C129.926 234.253 129.39 233.832 129.006 233.297C128.626 232.761 128.437 232.137 128.437 231.425H130.409C130.409 232.07 130.622 232.569 131.049 232.922C131.475 233.276 132.086 233.453 132.881 233.453C133.567 233.453 134.082 233.315 134.425 233.039C134.774 232.759 134.948 232.389 134.948 231.932Z" fill="#242B35" />
    <path d="M141.934 233.499C142.408 233.499 142.8 233.362 143.112 233.086C143.424 232.811 143.59 232.47 143.611 232.065H145.397C145.376 232.59 145.212 233.081 144.905 233.538C144.599 233.991 144.183 234.349 143.658 234.614C143.133 234.88 142.566 235.012 141.958 235.012C140.778 235.012 139.842 234.63 139.151 233.866C138.459 233.102 138.114 232.046 138.114 230.7V230.505C138.114 229.221 138.457 228.194 139.143 227.425C139.829 226.65 140.765 226.263 141.95 226.263C142.953 226.263 143.77 226.557 144.399 227.144C145.033 227.726 145.365 228.493 145.397 229.445H143.611C143.59 228.961 143.424 228.563 143.112 228.251C142.805 227.94 142.413 227.784 141.934 227.784C141.321 227.784 140.848 228.007 140.515 228.454C140.183 228.896 140.014 229.569 140.008 230.474V230.778C140.008 231.693 140.172 232.376 140.5 232.829C140.832 233.276 141.311 233.499 141.934 233.499Z" fill="#242B35" />
    <path d="M151.869 234.856C151.786 234.695 151.713 234.433 151.65 234.069C151.047 234.698 150.309 235.012 149.436 235.012C148.589 235.012 147.897 234.77 147.362 234.287C146.826 233.803 146.559 233.206 146.559 232.493C146.559 231.594 146.891 230.905 147.557 230.427C148.227 229.944 149.184 229.702 150.426 229.702H151.588V229.148C151.588 228.712 151.466 228.363 151.222 228.103C150.977 227.838 150.606 227.706 150.107 227.706C149.675 227.706 149.322 227.815 149.046 228.033C148.77 228.246 148.633 228.519 148.633 228.852H146.738C146.738 228.389 146.891 227.958 147.198 227.557C147.505 227.152 147.921 226.835 148.446 226.606C148.976 226.377 149.566 226.263 150.216 226.263C151.203 226.263 151.991 226.513 152.578 227.012C153.166 227.505 153.467 228.202 153.483 229.101V232.907C153.483 233.666 153.59 234.271 153.803 234.724V234.856H151.869ZM149.787 233.492C150.161 233.492 150.512 233.401 150.84 233.219C151.172 233.037 151.422 232.792 151.588 232.486V230.895H150.567C149.865 230.895 149.337 231.017 148.984 231.261C148.63 231.506 148.453 231.851 148.453 232.299C148.453 232.662 148.573 232.954 148.812 233.172C149.056 233.385 149.381 233.492 149.787 233.492Z" fill="#242B35" />
    <path d="M157.226 226.419L157.28 227.394C157.904 226.64 158.723 226.263 159.737 226.263C161.494 226.263 162.388 227.269 162.419 229.281V234.856H160.524V229.39C160.524 228.855 160.407 228.459 160.173 228.205C159.945 227.945 159.568 227.815 159.043 227.815C158.279 227.815 157.709 228.16 157.335 228.852V234.856H155.44V226.419H157.226Z" fill="#242B35" />
    <path d="M170.599 234.856H168.634V223.503H170.599V234.856Z" fill="#242B35" />
    <path d="M178.958 231.932C178.958 231.433 178.781 231.048 178.428 230.778C178.08 230.508 177.448 230.235 176.533 229.959C175.618 229.684 174.89 229.377 174.35 229.039C173.315 228.389 172.798 227.542 172.798 226.497C172.798 225.582 173.17 224.828 173.913 224.236C174.662 223.643 175.631 223.347 176.822 223.347C177.612 223.347 178.316 223.492 178.935 223.783C179.553 224.074 180.04 224.49 180.393 225.031C180.747 225.566 180.923 226.162 180.923 226.817H178.958C178.958 226.224 178.771 225.761 178.397 225.429C178.028 225.091 177.497 224.922 176.806 224.922C176.161 224.922 175.66 225.06 175.301 225.335C174.948 225.611 174.771 225.995 174.771 226.489C174.771 226.905 174.963 227.253 175.348 227.534C175.733 227.81 176.367 228.08 177.251 228.345C178.134 228.605 178.844 228.904 179.379 229.242C179.915 229.574 180.307 229.959 180.557 230.396C180.806 230.827 180.931 231.334 180.931 231.916C180.931 232.863 180.567 233.616 179.839 234.178C179.117 234.734 178.134 235.012 176.892 235.012C176.07 235.012 175.314 234.861 174.623 234.56C173.936 234.253 173.401 233.832 173.016 233.297C172.637 232.761 172.447 232.137 172.447 231.425H174.42C174.42 232.07 174.633 232.569 175.059 232.922C175.486 233.276 176.096 233.453 176.892 233.453C177.578 233.453 178.093 233.315 178.436 233.039C178.784 232.759 178.958 232.389 178.958 231.932Z" fill="#242B35" />
    <path d="M182.662 234.856V223.503H186.553C187.837 223.503 188.815 223.76 189.485 224.275C190.156 224.789 190.491 225.556 190.491 226.575C190.491 227.095 190.351 227.563 190.07 227.979C189.789 228.394 189.379 228.717 188.838 228.945C189.451 229.112 189.924 229.426 190.257 229.889C190.595 230.346 190.764 230.898 190.764 231.542C190.764 232.608 190.421 233.427 189.735 233.998C189.054 234.57 188.076 234.856 186.803 234.856H182.662ZM184.635 229.733V233.281H186.826C187.445 233.281 187.928 233.128 188.277 232.821C188.625 232.514 188.799 232.088 188.799 231.542C188.799 230.362 188.196 229.759 186.99 229.733H184.635ZM184.635 228.283H186.569C187.182 228.283 187.661 228.145 188.004 227.869C188.352 227.589 188.526 227.194 188.526 226.684C188.526 226.123 188.365 225.717 188.043 225.468C187.726 225.218 187.229 225.093 186.553 225.093H184.635V228.283Z" fill="#242B35" />
    <path d="M201.743 234.856H199.77L194.71 226.801V234.856H192.737V223.503H194.71L199.786 231.589V223.503H201.743V234.856Z" fill="#242B35" />
    <path d="M210.009 231.932C210.009 231.433 209.832 231.048 209.479 230.778C209.13 230.508 208.499 230.235 207.584 229.959C206.669 229.684 205.941 229.377 205.4 229.039C204.366 228.389 203.849 227.542 203.849 226.497C203.849 225.582 204.22 224.828 204.964 224.236C205.712 223.643 206.682 223.347 207.872 223.347C208.663 223.347 209.367 223.492 209.986 223.783C210.604 224.074 211.09 224.49 211.444 225.031C211.797 225.566 211.974 226.162 211.974 226.817H210.009C210.009 226.224 209.822 225.761 209.447 225.429C209.078 225.091 208.548 224.922 207.857 224.922C207.212 224.922 206.71 225.06 206.352 225.335C205.998 225.611 205.822 225.995 205.822 226.489C205.822 226.905 206.014 227.253 206.399 227.534C206.783 227.81 207.417 228.08 208.301 228.345C209.185 228.605 209.895 228.904 210.43 229.242C210.965 229.574 211.358 229.959 211.607 230.396C211.857 230.827 211.982 231.334 211.982 231.916C211.982 232.863 211.618 233.616 210.89 234.178C210.167 234.734 209.185 235.012 207.943 235.012C207.121 235.012 206.365 234.861 205.673 234.56C204.987 234.253 204.452 233.832 204.067 233.297C203.688 232.761 203.498 232.137 203.498 231.425H205.471C205.471 232.07 205.684 232.569 206.11 232.922C206.536 233.276 207.147 233.453 207.943 233.453C208.629 233.453 209.143 233.315 209.486 233.039C209.835 232.759 210.009 232.389 210.009 231.932Z" fill="#242B35" />
    <path d="M54.4248 235.507C54.2482 235.508 54.0738 235.477 53.9143 235.418C53.7548 235.36 53.6142 235.274 53.503 235.167L47.7952 229.654C47.6214 229.489 47.5264 229.283 47.5264 229.07C47.5264 228.857 47.6214 228.651 47.7952 228.487L53.7039 222.974C53.9045 222.786 54.1927 222.668 54.5052 222.645C54.8177 222.623 55.1288 222.698 55.3702 222.854C55.6115 223.01 55.7633 223.234 55.7921 223.477C55.8209 223.72 55.7244 223.962 55.5238 224.15L50.2414 229.075L55.3465 234C55.491 234.135 55.5828 234.299 55.6111 234.473C55.6393 234.648 55.6027 234.824 55.5058 234.983C55.4088 235.141 55.2555 235.275 55.0639 235.368C54.8723 235.461 54.6505 235.509 54.4248 235.507Z" fill="black" fill-opacity="0.3" />
    <rect x="5.25293" y="229.075" width="5.51381" height="25.7311" rx="2.75691" fill="#2D3441" />
    <rect x="331.486" y="266.751" width="5.51381" height="70.7606" rx="2.75691" fill="#2D3441" />
    <rect x="4.33398" y="272.265" width="5.51381" height="40.4346" rx="2.75691" fill="#2D3441" />
    <rect x="4.33398" y="317.293" width="5.51381" height="40.4346" rx="2.75691" fill="#2D3441" />
  </g>
  <path d="M127.287 722.987H123.901C123.434 722.987 123.055 723.367 123.055 723.834V727.22C123.055 727.687 123.434 728.066 123.901 728.066C124.368 728.066 124.748 727.687 124.748 727.22V724.68H127.287C127.754 724.68 128.134 724.301 128.134 723.834C128.134 723.367 127.754 722.987 127.287 722.987Z" fill="#52BEFF" />
  <path d="M136.601 738.224L139.987 738.224C140.454 738.224 140.833 737.845 140.833 737.378L140.833 733.992C140.833 733.524 140.454 733.145 139.987 733.145C139.519 733.145 139.14 733.524 139.14 733.992L139.14 736.531L136.601 736.531C136.133 736.531 135.754 736.91 135.754 737.378C135.754 737.845 136.133 738.224 136.601 738.224Z" fill="#52BEFF" />
  <path d="M139.983 722.987H136.597C136.13 722.987 135.751 723.367 135.751 723.834C135.751 724.301 136.13 724.68 136.597 724.68H139.137V727.22C139.137 727.687 139.516 728.066 139.983 728.066C140.451 728.066 140.83 727.687 140.83 727.22V723.834C140.83 723.367 140.451 722.987 139.983 722.987Z" fill="#52BEFF" />
  <path d="M123.9 738.224L127.286 738.224C127.754 738.224 128.133 737.845 128.133 737.378C128.133 736.91 127.754 736.531 127.286 736.531L124.747 736.531L124.747 733.992C124.747 733.524 124.368 733.145 123.9 733.145C123.433 733.145 123.054 733.524 123.054 733.992L123.054 737.378C123.054 737.845 123.433 738.224 123.9 738.224Z" fill="#52BEFF" />
  <path d="M128.136 725.526H125.597V735.684H128.136V725.526Z" fill="#52BEFF" />
  <path d="M133.213 725.526H130.674V735.684H133.213V725.526Z" fill="#52BEFF" />
  <path d="M138.29 725.526H135.751V735.684H138.29V725.526Z" fill="#52BEFF" />
  <path d="M281.172 732.162C281.893 732.162 282.599 731.971 283.199 731.612C283.8 731.253 284.267 730.743 284.544 730.147C284.82 729.55 284.892 728.894 284.751 728.26C284.611 727.627 284.263 727.045 283.752 726.589C283.242 726.132 282.592 725.821 281.884 725.695C281.176 725.569 280.442 725.634 279.775 725.881C279.108 726.128 278.538 726.546 278.137 727.083C277.736 727.62 277.521 728.252 277.521 728.897C277.521 729.763 277.906 730.594 278.591 731.206C279.275 731.818 280.203 732.162 281.172 732.162ZM281.172 727.265C281.532 727.265 281.885 727.361 282.185 727.54C282.486 727.719 282.719 727.974 282.858 728.273C282.996 728.571 283.032 728.899 282.961 729.216C282.891 729.532 282.717 729.823 282.462 730.052C282.207 730.28 281.882 730.435 281.528 730.498C281.174 730.561 280.807 730.529 280.473 730.406C280.14 730.282 279.855 730.073 279.654 729.804C279.454 729.536 279.346 729.22 279.346 728.897C279.346 728.464 279.539 728.049 279.881 727.743C280.223 727.437 280.687 727.265 281.172 727.265Z" fill="#5C2E2E" fill-opacity="0.2" />
  <path d="M281.171 732.979C279.477 732.979 277.852 733.581 276.654 734.653C275.456 735.724 274.783 737.177 274.783 738.693C274.783 738.909 274.879 739.117 275.05 739.27C275.222 739.423 275.454 739.509 275.696 739.509C275.938 739.509 276.17 739.423 276.341 739.27C276.512 739.117 276.608 738.909 276.608 738.693C276.608 737.61 277.089 736.572 277.945 735.807C278.8 735.041 279.961 734.611 281.171 734.611C282.381 734.611 283.541 735.041 284.397 735.807C285.253 736.572 285.733 737.61 285.733 738.693C285.733 738.909 285.829 739.117 286.001 739.27C286.172 739.423 286.404 739.509 286.646 739.509C286.888 739.509 287.12 739.423 287.291 739.27C287.462 739.117 287.558 738.909 287.558 738.693C287.558 737.177 286.885 735.724 285.687 734.653C284.49 733.581 282.865 732.979 281.171 732.979V732.979Z" fill="#5C2E2E" fill-opacity="0.2" />
  <path d="M65.0293 736.773L62.1522 733.905C63.0805 732.722 63.5841 731.262 63.5823 729.758C63.5823 728.42 63.1852 727.111 62.4414 725.997C61.6975 724.884 60.6402 724.016 59.4033 723.504C58.1663 722.992 56.8051 722.858 55.4919 723.119C54.1787 723.38 52.9725 724.025 52.0258 724.972C51.079 725.918 50.4343 727.125 50.173 728.438C49.9118 729.751 50.0459 731.112 50.5583 732.349C51.0707 733.586 51.9383 734.643 53.0516 735.387C54.1649 736.131 55.4737 736.528 56.8126 736.528C58.316 736.53 59.7764 736.026 60.959 735.098L63.8277 737.975C63.9063 738.054 63.9999 738.117 64.103 738.16C64.2062 738.203 64.3168 738.225 64.4285 738.225C64.5402 738.225 64.6508 738.203 64.7539 738.16C64.857 738.117 64.9506 738.054 65.0293 737.975C65.1086 737.896 65.1716 737.803 65.2145 737.7C65.2575 737.597 65.2796 737.486 65.2796 737.374C65.2796 737.263 65.2575 737.152 65.2145 737.049C65.1716 736.946 65.1086 736.852 65.0293 736.773ZM51.7354 729.758C51.7354 728.754 52.0332 727.773 52.5911 726.938C53.1489 726.103 53.9419 725.452 54.8696 725.068C55.7974 724.683 56.8183 724.583 57.8031 724.779C58.788 724.975 59.6927 725.458 60.4028 726.168C61.1128 726.878 61.5964 727.783 61.7923 728.768C61.9882 729.753 61.8877 730.774 61.5034 731.701C61.1191 732.629 60.4683 733.422 59.6334 733.98C58.7984 734.538 57.8168 734.836 56.8126 734.836C55.4661 734.836 54.1746 734.301 53.2225 733.349C52.2703 732.396 51.7354 731.105 51.7354 729.758Z" fill="#5C2E2E" fill-opacity="0.2" />
  <path d="M215.573 728.079C215.415 727.835 215.189 727.631 214.917 727.488C214.645 727.345 214.337 727.268 214.021 727.263H202.341L201.812 725.418C201.759 725.24 201.639 725.084 201.474 724.974C201.308 724.864 201.106 724.808 200.9 724.814H199.075C198.833 724.814 198.601 724.9 198.429 725.054C198.258 725.207 198.162 725.414 198.162 725.631C198.162 725.847 198.258 726.055 198.429 726.208C198.601 726.361 198.833 726.447 199.075 726.447H200.206L202.725 734.822C202.778 735 202.897 735.156 203.063 735.266C203.229 735.376 203.431 735.432 203.637 735.426H211.85C212.018 735.425 212.183 735.383 212.327 735.304C212.47 735.225 212.586 735.111 212.662 734.977L215.655 729.622C215.785 729.379 215.845 729.111 215.831 728.842C215.816 728.572 215.728 728.311 215.573 728.079ZM211.284 733.793H204.331L202.843 728.896H214.021L211.284 733.793Z" fill="#5C2E2E" fill-opacity="0.2" />
  <path d="M203.18 739.506C203.936 739.506 204.549 738.958 204.549 738.282C204.549 737.606 203.936 737.058 203.18 737.058C202.424 737.058 201.812 737.606 201.812 738.282C201.812 738.958 202.424 739.506 203.18 739.506Z" fill="#5C2E2E" fill-opacity="0.2" />
  <path d="M212.304 739.506C213.06 739.506 213.673 738.958 213.673 738.282C213.673 737.606 213.06 737.058 212.304 737.058C211.548 737.058 210.936 737.606 210.936 738.282C210.936 738.958 211.548 739.506 212.304 739.506Z" fill="#5C2E2E" fill-opacity="0.2" />
  <defs>
    <filter id="filter0_d" x="195.085" y="0" width="432.857" height="599.935" filterUnits="userSpaceOnUse" color-interpolation-filters="sRGB">
      <feFlood flood-opacity="0" result="BackgroundImageFix" />
      <feColorMatrix in="SourceAlpha" type="matrix" values="0 0 0 0 0 0 0 0 0 0 0 0 0 0 0 0 0 0 127 0" />
      <feOffset dy="4" />
      <feGaussianBlur stdDeviation="2" />
      <feColorMatrix type="matrix" values="0 0 0 0 0 0 0 0 0 0 0 0 0 0 0 0 0 0 0.25 0" />
      <feBlend mode="normal" in2="BackgroundImageFix" result="effect1_dropShadow" />
      <feBlend mode="normal" in="SourceGraphic" in2="effect1_dropShadow" result="shape" />
    </filter>
    <filter id="filter1_d" x="618.988" y="0" width="71.0109" height="598.312" filterUnits="userSpaceOnUse" color-interpolation-filters="sRGB">
      <feFlood flood-opacity="0" result="BackgroundImageFix" />
      <feColorMatrix in="SourceAlpha" type="matrix" values="0 0 0 0 0 0 0 0 0 0 0 0 0 0 0 0 0 0 127 0" />
      <feOffset dy="4" />
      <feGaussianBlur stdDeviation="2" />
      <feColorMatrix type="matrix" values="0 0 0 0 0 0 0 0 0 0 0 0 0 0 0 0 0 0 0.25 0" />
      <feBlend mode="normal" in2="BackgroundImageFix" result="effect1_dropShadow" />
      <feBlend mode="normal" in="SourceGraphic" in2="effect1_dropShadow" result="shape" />
    </filter>
    <filter id="filter2_d" x="0.333984" y="159.232" width="340.666" height="633.817" filterUnits="userSpaceOnUse" color-interpolation-filters="sRGB">
      <feFlood flood-opacity="0" result="BackgroundImageFix" />
      <feColorMatrix in="SourceAlpha" type="matrix" values="0 0 0 0 0 0 0 0 0 0 0 0 0 0 0 0 0 0 127 0" />
      <feOffset dy="4" />
      <feGaussianBlur stdDeviation="2" />
      <feColorMatrix type="matrix" values="0 0 0 0 0 0 0 0 0 0 0 0 0 0 0 0 0 0 0.25 0" />
      <feBlend mode="normal" in2="BackgroundImageFix" result="effect1_dropShadow" />
      <feBlend mode="normal" in="SourceGraphic" in2="effect1_dropShadow" result="shape" />
    </filter>
  </defs>
</svg>