<svg width="65" height="65" viewBox="0 0 65 65" fill="none" xmlns="http://www.w3.org/2000/svg">
  <rect width="65" height="65" rx="32.5" fill="#F2F6E9" />
  <path fill-rule="evenodd" clip-rule="evenodd" d="M26.9809 21.1545H19.3267V20.1545H26.9809V21.1545Z" fill="#3E5C6D" />
  <path fill-rule="evenodd" clip-rule="evenodd" d="M26.9809 24.0692H19.3267V23.0692H26.9809V24.0692Z" fill="#3E5C6D" />
  <path fill-rule="evenodd" clip-rule="evenodd" d="M41.5598 46.3042H33.9056V45.3042H41.5598V46.3042Z" fill="#3E5C6D" />
  <path fill-rule="evenodd" clip-rule="evenodd" d="M41.5603 32.0889H19.3267V31.0889H41.5603V32.0889Z" fill="#3E5C6D" />
  <path fill-rule="evenodd" clip-rule="evenodd" d="M41.5603 35.0034H19.3267V34.0034H41.5603V35.0034Z" fill="#3E5C6D" />
  <path fill-rule="evenodd" clip-rule="evenodd" d="M41.5603 37.921H19.3267V36.921H41.5603V37.921Z" fill="#3E5C6D" />
  <path fill-rule="evenodd" clip-rule="evenodd" d="M41.0602 13.3636H42.0602V17.602H45.934V18.602H41.0602V13.3636Z" fill="#3E5C6D" />
  <path fill-rule="evenodd" clip-rule="evenodd" d="M45.1489 51H16.4922V14H41.0645L45.1489 18.2759V22.75V26.3184C45.4955 26.5014 45.8294 26.7052 46.1489 26.9282V22.75V17.875L41.4922 13H16.4922H15.4922V14V51V52H16.4922H45.1489H46.1489V51V42.5336C45.8294 42.7566 45.4955 42.9604 45.1489 43.1434V51Z" fill="#3E5C6D" />
  <path fill-rule="evenodd" clip-rule="evenodd" d="M42.2888 41.8886C46.3873 41.8886 49.672 38.644 49.672 34.6876C49.672 30.7313 46.3873 27.4867 42.2888 27.4867C38.1904 27.4867 34.9056 30.7313 34.9056 34.6876C34.9056 38.644 38.1904 41.8886 42.2888 41.8886ZM42.2888 42.8886C46.9187 42.8886 50.672 39.2169 50.672 34.6876C50.672 30.1584 46.9187 26.4867 42.2888 26.4867C37.6589 26.4867 33.9056 30.1584 33.9056 34.6876C33.9056 39.2169 37.6589 42.8886 42.2888 42.8886Z" fill="#3E5C6D" />
  <path fill-rule="evenodd" clip-rule="evenodd" d="M56.8882 47.9879L48.8695 40.3337L49.56 39.6104L57.5787 47.2646L56.8882 47.9879Z" fill="#3E5C6D" />
</svg>