<svg width="65" height="65" viewBox="0 0 65 65" fill="none" xmlns="http://www.w3.org/2000/svg">
  <rect width="65" height="65" rx="32.5" fill="#F5E4EA" />
  <path d="M35.946 24.514C35.946 24.0697 35.7858 23.6954 35.4655 23.3912C35.1501 23.0869 34.6155 22.8116 33.8615 22.5654C32.8119 22.2515 32.0456 21.8434 31.5627 21.3411C31.0847 20.8341 30.8457 20.1918 30.8457 19.4143C30.8457 18.6223 31.0798 17.9727 31.5479 17.4657C32.021 16.9586 32.669 16.6568 33.4919 16.5602V14.9738H34.5933V16.5674C35.4212 16.6785 36.0643 17.0189 36.5225 17.5888C36.9858 18.1587 37.2174 18.9386 37.2174 19.9286H35.8573C35.8573 19.2477 35.6922 18.7068 35.362 18.3059C35.0319 17.9051 34.5859 17.7047 34.0241 17.7047C33.4377 17.7047 32.9893 17.8544 32.6788 18.1538C32.3684 18.4484 32.2132 18.8613 32.2132 19.3925C32.2132 19.8851 32.3758 20.2787 32.701 20.5733C33.0312 20.863 33.5708 21.1287 34.3198 21.3701C35.0738 21.6067 35.6602 21.8699 36.079 22.1597C36.5028 22.4446 36.8133 22.7778 37.0104 23.1594C37.2124 23.5409 37.3135 23.9876 37.3135 24.4995C37.3135 25.3156 37.0621 25.9724 36.5595 26.4698C36.0618 26.9672 35.362 27.2618 34.4603 27.3536V28.7372H33.3663V27.3536C32.4497 27.2715 31.7302 26.9527 31.2079 26.3974C30.6905 25.8372 30.4318 25.079 30.4318 24.1228H31.7992C31.7992 24.7941 31.9791 25.3108 32.3388 25.673C32.6986 26.0352 33.2086 26.2163 33.8689 26.2163C34.5145 26.2163 35.022 26.0642 35.3916 25.7599C35.7612 25.4557 35.946 25.0404 35.946 24.514Z" fill="#3E5C6D" />
  <path fill-rule="evenodd" clip-rule="evenodd" d="M33.8719 31.1775C38.7831 31.1775 42.7644 27.1962 42.7644 22.285C42.7644 17.3739 38.7831 13.3926 33.8719 13.3926C28.9608 13.3926 24.9795 17.3739 24.9795 22.285C24.9795 27.1962 28.9608 31.1775 33.8719 31.1775ZM33.8719 32.1775C39.3354 32.1775 43.7644 27.7485 43.7644 22.285C43.7644 16.8216 39.3354 12.3926 33.8719 12.3926C28.4085 12.3926 23.9795 16.8216 23.9795 22.285C23.9795 27.7485 28.4085 32.1775 33.8719 32.1775Z" fill="#3E5C6D" />
  <path fill-rule="evenodd" clip-rule="evenodd" d="M25.6057 47.3103L16.7522 39.0277L12.0599 44.0434L20.9134 52.326L25.6057 47.3103ZM16.7051 37.6143L10.6464 44.0905L20.9605 53.7394L27.0191 47.2632L16.7051 37.6143Z" fill="#3E5C6D" />
  <path fill-rule="evenodd" clip-rule="evenodd" d="M22.8045 36.2058C21.0502 36.9696 19.7489 38.3031 19.0008 39.4252L18.1687 38.8705C18.9977 37.6271 20.4369 36.146 22.4052 35.2889C24.3702 34.4333 26.8359 34.2126 29.6806 35.4299L38.3834 35.6422L38.4168 35.6409C38.4498 35.6397 38.497 35.6383 38.5565 35.6375C38.6752 35.6357 38.8433 35.6357 39.0444 35.6428C39.4442 35.6568 39.9858 35.699 40.5344 35.8145C41.0756 35.9284 41.6664 36.1223 42.1326 36.4658C42.6174 36.823 42.9744 37.3516 42.9744 38.078C42.9744 39.2879 42.5371 40.0655 41.9423 40.537C41.3725 40.9888 40.7196 41.1103 40.3603 41.1502L40.3328 41.1533H33.2083V40.1533H40.2763C40.5619 40.1189 40.9783 40.0252 41.3211 39.7534C41.6497 39.4928 41.9744 39.0185 41.9744 38.078C41.9744 37.7291 41.8207 37.4781 41.5394 37.2708C41.2394 37.0498 40.8088 36.8942 40.3284 36.793C39.8555 36.6935 39.3756 36.655 39.0093 36.6421C38.8274 36.6358 38.6762 36.6358 38.5715 36.6373C38.5192 36.6381 38.4786 36.6393 38.4518 36.6402L38.4222 36.6414L38.4156 36.6417L38.4145 36.6418L38.3955 36.6428L29.4608 36.4249L29.3708 36.3855C26.7486 35.2383 24.5412 35.4495 22.8045 36.2058Z" fill="#3E5C6D" />
  <path fill-rule="evenodd" clip-rule="evenodd" d="M49.1095 31.5768C50.1108 30.9616 51.4596 30.4195 52.6437 31.2089C53.2719 31.6278 53.5289 32.2019 53.4974 32.823C53.4685 33.3942 53.1986 33.9597 52.8986 34.4426C52.5928 34.9347 52.215 35.4034 51.9073 35.7814C51.8895 35.8032 51.8721 35.8247 51.8549 35.8458C51.7196 36.0118 51.6019 36.1562 51.5055 36.2826C51.3908 36.4329 51.3352 36.5211 51.3162 36.5631L51.2846 36.6324L51.2339 36.6892C49.4477 38.6897 46.8673 41.8272 45.6792 43.5246C45.0263 44.4573 44.1363 45.1834 43.2551 45.6857C42.3805 46.1842 41.4728 46.4857 40.764 46.5274L40.7494 46.5283H25.2509V45.5283H40.7192C41.2289 45.4949 41.9799 45.2616 42.7599 44.817C43.5404 44.372 44.3086 43.7388 44.86 42.9511C46.0705 41.2218 48.6476 38.0885 50.4439 36.0726C50.515 35.94 50.6142 35.8023 50.7104 35.6761C50.8173 35.536 50.9461 35.3779 51.0793 35.2144C51.0968 35.193 51.1143 35.1716 51.1318 35.15C51.4424 34.7686 51.7815 34.3457 52.0492 33.9148C52.3226 33.4749 52.4828 33.086 52.4987 32.7724C52.5121 32.5086 52.4285 32.2673 52.089 32.041C51.4511 31.6157 50.6135 31.8264 49.633 32.4288C49.1652 32.7163 48.7153 33.0626 48.3094 33.3871C48.2322 33.4488 48.1551 33.511 48.0791 33.5723C47.7968 33.8001 47.5283 34.0167 47.3125 34.1618L42.8356 38.8519L42.1122 38.1615L46.6695 33.3872L46.7196 33.3549C46.8938 33.243 47.1241 33.0574 47.4225 32.8169C47.5048 32.7506 47.5922 32.6802 47.685 32.606C48.0967 32.2769 48.5864 31.8982 49.1095 31.5768Z" fill="#3E5C6D" />
</svg>